<svg xmlns="http://www.w3.org/2000/svg" version="1.1" xmlns:xlink="http://www.w3.org/1999/xlink" xmlns:svgjs="http://svgjs.dev/svgjs" width="1000" height="1000" viewBox="0 0 1000 1000"><rect width="1000" height="1000" fill="#ffffff"></rect><g transform="matrix(0.7,0,0,0.7,149.5757576240254,408.70881203540284)"><svg viewBox="0 0 396 104" data-background-color="#ffffff" preserveAspectRatio="xMidYMid meet" height="262" width="1000" xmlns="http://www.w3.org/2000/svg" xmlns:xlink="http://www.w3.org/1999/xlink"><g id="tight-bounds" transform="matrix(1,0,0,1,0.24000002730582537,-0.23182361876715163)"><svg viewBox="0 0 395.52 104.46364723753432" height="104.46364723753432" width="395.52"><g><svg viewBox="0 0 555.857871641849 146.81164193315317" height="104.46364723753432" width="395.52"><g transform="matrix(1,0,0,1,0,20.29017627296112)"><svg viewBox="0 0 395.52 106.23128938723093" height="106.23128938723093" width="395.52"><g id="textblocktransform"><svg viewBox="0 0 395.52 106.23128938723093" height="106.23128938723093" width="395.52" id="textblock"><g><svg viewBox="0 0 395.52 57.296081383519834" height="57.296081383519834" width="395.52"><g transform="matrix(1,0,0,1,0,0)"><svg width="395.52" viewBox="2.950000047683716 -35.099998474121094 245.72999572753906 35.599998474121094" height="57.296081383519834" data-palette-color="#7a26c1"><path d="M25-3.85L25.15-0.55Q20 0.5 15.9 0.5 11.8 0.5 9.28-0.63 6.75-1.75 5.38-4.13 4-6.5 3.48-9.58 2.95-12.65 2.95-17.25 2.95-21.85 3.48-24.98 4-28.1 5.38-30.5 6.75-32.9 9.25-34 11.75-35.1 15.75-35.1 19.75-35.1 25.15-34L25.15-34 25-30.75Q19.95-31.65 16-31.65L16-31.65Q10.5-31.65 8.72-28.38 6.95-25.1 6.95-17.2L6.95-17.2Q6.95-13.25 7.28-10.85 7.6-8.45 8.55-6.53 9.5-4.6 11.33-3.78 13.15-2.95 16.68-2.95 20.2-2.95 25-3.85L25-3.85ZM33.45-17.15Q33.45-9.55 35.45-6.23 37.45-2.9 43.17-2.9 48.9-2.9 50.87-6.15 52.85-9.4 52.85-17.05 52.85-24.7 50.8-28.2 48.75-31.7 43.12-31.7 37.5-31.7 35.47-28.23 33.45-24.75 33.45-17.15ZM56.85-17.05Q56.85-7.8 53.9-3.65 50.95 0.5 43.17 0.5 35.4 0.5 32.45-3.75 29.5-8 29.5-17.13 29.5-26.25 32.5-30.68 35.5-35.1 43.15-35.1 50.8-35.1 53.82-30.7 56.85-26.3 56.85-17.05ZM82.95-3.45L82.95 0 63.9 0 63.9-34.6 67.75-34.6 67.75-3.45 82.95-3.45ZM106.89-3.45L106.89 0 87.84 0 87.84-34.6 91.69-34.6 91.69-3.45 106.89-3.45ZM132.84 0L111.79 0 111.79-34.6 132.84-34.6 132.84-31.2 115.64-31.2 115.64-19.25 129.84-19.25 129.84-15.9 115.64-15.9 115.64-3.4 132.84-3.4 132.84 0ZM159.79-3.85L159.94-0.55Q154.79 0.5 150.69 0.5 146.59 0.5 144.06-0.63 141.54-1.75 140.16-4.13 138.79-6.5 138.26-9.58 137.74-12.65 137.74-17.25 137.74-21.85 138.26-24.98 138.79-28.1 140.16-30.5 141.54-32.9 144.04-34 146.54-35.1 150.54-35.1 154.54-35.1 159.94-34L159.94-34 159.79-30.75Q154.74-31.65 150.79-31.65L150.79-31.65Q145.29-31.65 143.51-28.38 141.74-25.1 141.74-17.2L141.74-17.2Q141.74-13.25 142.06-10.85 142.39-8.45 143.34-6.53 144.29-4.6 146.11-3.78 147.94-2.95 151.46-2.95 154.99-2.95 159.79-3.85L159.79-3.85ZM173.29-31.15L162.64-31.15 162.64-34.6 187.64-34.6 187.64-31.15 177.09-31.15 177.09 0 173.29 0 173.29-31.15ZM194.08-17.15Q194.08-9.55 196.08-6.23 198.08-2.9 203.81-2.9 209.53-2.9 211.51-6.15 213.48-9.4 213.48-17.05 213.48-24.7 211.43-28.2 209.38-31.7 203.76-31.7 198.13-31.7 196.11-28.23 194.08-24.75 194.08-17.15ZM217.48-17.05Q217.48-7.8 214.53-3.65 211.58 0.5 203.81 0.5 196.03 0.5 193.08-3.75 190.13-8 190.13-17.13 190.13-26.25 193.13-30.68 196.13-35.1 203.78-35.1 211.43-35.1 214.46-30.7 217.48-26.3 217.48-17.05ZM238.18-13.25L228.38-13.25 228.38 0 224.53 0 224.53-34.6 237.33-34.6Q242.83-34.6 245.61-32.05 248.38-29.5 248.38-24.1L248.38-24.1Q248.38-16.1 242.03-14.05L242.03-14.05 248.68 0 244.43 0 238.18-13.25ZM228.38-16.65L237.38-16.65Q244.43-16.65 244.43-23.93 244.43-31.2 237.33-31.2L237.33-31.2 228.38-31.2 228.38-16.65Z" opacity="1" transform="matrix(1,0,0,1,0,0)" fill="#7a26c1" class="undefined-text-0" data-fill-palette-color="primary" id="text-0"></path></svg></g></svg></g><g transform="matrix(1,0,0,1,247.78240399298247,70.82231109221566)"><svg viewBox="0 0 147.73759600701752 35.40897829501526" height="35.40897829501526" width="147.73759600701752"><g transform="matrix(1,0,0,1,0,0)"><svg width="147.73759600701752" viewBox="0.8500000238418579 -36.25 153.739990234375 36.849998474121094" height="35.40897829501526" data-palette-color="#7a26c1"><path d="M25.85 0L13.05 0 0.85-34.4 12.65-34.4 19.55-11.4 19.75-11.4 26.7-34.4 38-34.4 25.85 0ZM53-29.5L43.05-29.5 43.05-36.25 53-36.25 53-29.5ZM53 0L43.05 0 43.05-26.4 53-26.4 53 0ZM86.65 0L78.55 0 77.7-3.75Q74.8 0.6 69.3 0.6L69.3 0.6Q63.95 0.6 61.05-2.9 58.15-6.4 58.15-13.25L58.15-13.25Q58.15-20.05 61.05-23.53 63.95-27 69.3-27L69.3-27Q73.85-27 76.7-23.95L76.7-23.95 76.7-36.25 86.65-36.25 86.65 0ZM72.4-19.65Q68.1-19.65 68.1-14.5L68.1-14.5 68.1-11.85Q68.1-6.75 72.4-6.75L72.4-6.75Q74.6-6.75 75.7-8.3 76.8-9.85 76.8-12.35L76.8-12.35 76.8-14Q76.8-16.5 75.7-18.07 74.6-19.65 72.4-19.65L72.4-19.65ZM106.34-27Q113.59-27 117.42-23.6 121.24-20.2 121.24-13.2L121.24-13.2 121.24-11.5 101.44-11.5Q101.44-8.65 102.72-7.2 103.99-5.75 106.74-5.75L106.74-5.75Q109.24-5.75 110.42-6.8 111.59-7.85 111.59-9.6L111.59-9.6 121.24-9.6Q121.24-4.8 117.59-2.1 113.94 0.6 106.94 0.6L106.94 0.6Q99.59 0.6 95.54-2.83 91.49-6.25 91.49-13.2L91.49-13.2Q91.49-20 95.44-23.5 99.39-27 106.34-27L106.34-27ZM106.74-20.65Q102.04-20.65 101.49-16.2L101.49-16.2 111.19-16.2Q111.19-18.25 110.02-19.45 108.84-20.65 106.74-20.65L106.74-20.65ZM139.69-27Q146.64-27 150.62-23.48 154.59-19.95 154.59-13.2L154.59-13.2Q154.59-6.45 150.62-2.93 146.64 0.6 139.69 0.6L139.69 0.6Q132.74 0.6 128.79-2.9 124.84-6.4 124.84-13.2L124.84-13.2Q124.84-20 128.79-23.5 132.74-27 139.69-27L139.69-27ZM139.69-20.25Q134.79-20.25 134.79-14.6L134.79-14.6 134.79-11.75Q134.79-6.15 139.69-6.15L139.69-6.15Q144.64-6.15 144.64-11.75L144.64-11.75 144.64-14.6Q144.64-20.25 139.69-20.25L139.69-20.25Z" opacity="1" transform="matrix(1,0,0,1,0,0)" fill="#7a26c1" class="undefined-text-1" data-fill-palette-color="secondary" id="text-1"></path></svg></g></svg></g></svg></g></svg></g><g transform="matrix(1,0,0,1,409.0462297086958,0)"><svg viewBox="0 0 146.81164193315317 146.81164193315317" height="146.81164193315317" width="146.81164193315317"><g data-palette-color="#a437db"><rect width="40.12851546172853" height="146.81164193315317" fill="#a437db" stroke="transparent" data-fill-palette-color="accent" x="0" fill-opacity="1"></rect><rect width="40.12851546172853" height="146.81164193315317" fill="#a437db" stroke="transparent" data-fill-palette-color="accent" x="48.937213977717725" fill-opacity="0.75"></rect><rect width="40.12851546172853" height="146.81164193315317" fill="#a437db" stroke="transparent" data-fill-palette-color="accent" x="97.87442795543545" fill-opacity="0.5"></rect></g></svg></g></svg></g><defs></defs></svg><rect width="395.52" height="104.46364723753432" fill="none" stroke="none" visibility="hidden"></rect></g></svg></g></svg>